<svg width="25" height="25" viewBox="0 0 25 25" fill="none" xmlns="http://www.w3.org/2000/svg">
<path d="M13.0598 21.2292C12.8966 21.3464 12.7007 21.4094 12.4998 21.4094C12.2988 21.4094 12.103 21.3464 11.9398 21.2292C7.11078 17.7872 1.98578 10.7072 7.16678 5.59118C8.58912 4.19203 10.5046 3.4083 12.4998 3.40918C14.4998 3.40918 16.4188 4.19418 17.8328 5.59018C23.0138 10.7062 17.8888 17.7852 13.0598 21.2292Z" stroke="#1C1D22" stroke-width="1.5" stroke-linecap="round" stroke-linejoin="round"/>
<path d="M12.5 12.4092C13.0304 12.4092 13.5391 12.1985 13.9142 11.8234C14.2893 11.4483 14.5 10.9396 14.5 10.4092C14.5 9.87875 14.2893 9.37004 13.9142 8.99497C13.5391 8.61989 13.0304 8.40918 12.5 8.40918C11.9696 8.40918 11.4609 8.61989 11.0858 8.99497C10.7107 9.37004 10.5 9.87875 10.5 10.4092C10.5 10.9396 10.7107 11.4483 11.0858 11.8234C11.4609 12.1985 11.9696 12.4092 12.5 12.4092Z" stroke="#1C1D22" stroke-width="1.5" stroke-linecap="round" stroke-linejoin="round"/>
</svg>
